#!OML:ASF I:\Actors\actors\Patient Classification 1\Patient 1\Session 1\Subject1.ASF
:FULLY-SPECIFIED
:DEGREES
671
root 0.474228 17.5427 9.22686 3.46261 8.05086 -7.44891
lowerback 3.07139 -8.35 0.936171
upperback -3.5476 -10.9448 4.22959
thorax -4.72932 -5.40571 4.59888
lowerneck -11.1951 -10.0587 -8.92834
upperneck 37.3564 -14.7503 3.55477
head 16.1827 -7.1461 0.46008
rclavicle -4.99757e-015 -3.91109e-014
rhumerus -71.1815 30.639 -93.7688
rradius 90.1688
rwrist 8.05404
rhand -12.8786 -24.1245
rfingers 7.12502
rthumb 13.2102 -53.6859
lclavicle -4.99757e-015 -3.91109e-014
lhumerus -102.299 -80.5009 194.683
lradius 59.5067
lwrist 23.3704
lhand -20.8398 -29.3181
lfingers 7.12502
lthumb 5.52901 0.589745
rfemur -2.34299 18.0426 26.9261
rtibia 11.5493
rfoot -16.173 -26.4622
rtoes 3.25033
lfemur 5.72485 -35.5055 -11.8946
ltibia -3.49986
lfoot -10.0874 34.8183
ltoes -11.7094
672
root 0.459846 17.5518 9.23542 3.05388 8.2631 -7.44629
lowerback 3.29704 -8.51529 0.692975
upperback -3.237 -11.1841 4.17482
thorax -4.47955 -5.52447 4.6839
lowerneck -11.2017 -10.0803 -9.04577
upperneck 37.4008 -14.8694 3.82133
head 16.263 -7.1763 0.564588
rclavicle 3.23553e-014 3.8763e-015
rhumerus -70.5912 30.7414 -94.0673
rradius 87.7983
rwrist 14.9329
rhand -19.691 -23.7001
rfingers 7.12502
rthumb 6.63814 -53.576
lclavicle 3.23553e-014 3.8763e-015
lhumerus -98.6192 -80.4896 191.305
lradius 57.9376
lwrist 22.7864
lhand -21.2962 -29.9788
lfingers 7.12502
lthumb 5.08833 -0.059843
rfemur -1.67971 18.1708 27.2106
rtibia 11.3556
rfoot -16.3657 -26.8036
rtoes 3.69303
lfemur 6.21774 -35.3998 -12.0776
ltibia -3.54622
lfoot -9.91463 34.5079
ltoes -12.2005
673
root 0.453338 17.5536 9.23187 2.7911 8.10153 -7.50769
lowerback 3.52616 -8.5586 0.623601
upperback -2.96604 -11.2486 4.11794
thorax -4.31792 -5.55971 4.67384
lowerneck -11.1584 -10.1174 -9.07389
upperneck 37.2371 -14.963 3.97012
head 16.1973 -7.20413 0.618878
rclavicle 2.943e-014 -7.9079e-015
rhumerus -69.2966 30.7321 -93.5962
rradius 85.4664
rwrist 23.2989
rhand -22.5929 -24.7993
rfingers 7.12502
rthumb 3.83628 -54.7445
lclavicle 2.943e-014 -7.9079e-015
lhumerus -95.0167 -80.3848 188.06
lradius 56.1439
lwrist 21.5627
lhand -22.1505 -30.5679
lfingers 7.12502
lthumb 4.26343 -0.630863
rfemur -1.45844 18.1708 27.3851
rtibia 11.477
rfoot -16.3953 -26.682
rtoes 3.71236
lfemur 6.55073 -35.0835 -12.1313
ltibia -3.55317
lfoot -9.90552 34.3361
ltoes -12.4297
674
root 0.450652 17.5499 9.22046 2.64545 7.72756 -7.55786
lowerback 3.73411 -8.53604 0.608995
upperback -2.71351 -11.2223 4.04307
thorax -4.18402 -5.55068 4.61139
lowerneck -11.1519 -10.1448 -9.19892
upperneck 36.9438 -15.068 4.30518
head 16.1086 -7.22544 0.763602
rclavicle -7.16626e-014 4.26642e-014
rhumerus -68.121 31.0327 -93.6473
rradius 83.0447
rwrist 29.6024
rhand -25.9993 -26.3867
rfingers 7.12502
rthumb 0.546392 -56.3657
lclavicle -7.16626e-014 4.26642e-014
lhumerus -91.6292 -80.2626 185.021
lradius 54.2462
lwrist 20.1287
lhand -22.5106 -31.1517
lfingers 7.12502
lthumb 3.91573 -1.20796
rfemur -1.51596 18.1856 27.4491
rtibia 11.7542
rfoot -16.3282 -26.3943
rtoes 3.44258
lfemur 6.78637 -34.871 -12.196
ltibia -3.5064
lfoot -10.1251 34.4365
ltoes -12.1217
675
root 0.450517 17.5463 9.20562 2.52796 7.30633 -7.59445
lowerback 3.96319 -8.48947 0.650084
upperback -2.44877 -11.1606 3.94006
thorax -4.06778 -5.52511 4.49246
lowerneck -11.2907 -10.1718 -9.40657
upperneck 36.7282 -15.207 4.7894
head 16.1264 -7.24542 0.965332
rclavicle 4.39508e-014 -3.47873e-015
rhumerus -67.0089 31.4541 -94.0403
rradius 80.4808
rwrist 32.8241
rhand -25.2336 -31.752
rfingers 7.12502
rthumb 1.286 -61.7279
lclavicle 4.39508e-014 -3.47873e-015
lhumerus -89.5694 -80.2075 183.283
lradius 52.3591
lwrist 18.64
lhand -22.6999 -31.6318
lfingers 7.12502
lthumb 3.73294 -1.68475
rfemur -1.64927 18.161 27.465
rtibia 12.0679
rfoot -16.1737 -26.0467
rtoes 2.70422
lfemur 7.01069 -34.7596 -12.301
ltibia -3.43842
lfoot -10.4532 34.6472
ltoes -11.4896
676
root 0.451858 17.5455 9.18777 2.46447 6.84832 -7.5621
lowerback 4.25245 -8.45538 0.603279
upperback -2.22218 -11.1181 3.85314
thorax -4.00386 -5.50524 4.4507
lowerneck -11.4622 -10.1619 -9.53416
upperneck 36.5643 -15.238 5.08771
head 16.1368 -7.23244 1.09541
rclavicle 1.28503e-014 2.5345e-014
rhumerus -65.7442 31.9391 -94.2551
rradius 78.3107
rwrist 34.7654
rhand -28.2256 -31.4465
rfingers 7.12502
rthumb -1.60383 -61.4203
lclavicle 1.28503e-014 2.5345e-014
lhumerus -86.5272 -80.0177 180.573
lradius 50.5372
lwrist 17.3424
lhand -22.7609 -31.7857
lfingers 7.12502
lthumb 3.67402 -1.83767
rfemur -1.89331 18.0463 27.3399
rtibia 12.4481
rfoot -16.023 -25.5359
rtoes 1.8043
lfemur 7.1463 -34.5227 -12.4153
ltibia -3.37422
lfoot -10.6543 34.7659
ltoes -11.1025
677
root 0.453071 17.5461 9.16832 2.47311 6.38242 -7.51906
lowerback 4.56501 -8.43281 0.539245
upperback -2.04234 -11.0903 3.7789
thorax -3.99504 -5.49073 4.4407
lowerneck -11.613 -10.1215 -9.55574
upperneck 36.3592 -15.1897 5.24812
head 16.084 -7.19205 1.16902
rclavicle -4.04604e-014 6.4605e-015
rhumerus -64.3979 32.471 -94.2971
rradius 76.577
rwrist 36.8187
rhand -29.2089 -30.8384
rfingers 7.12502
rthumb -2.55345 -60.8029
lclavicle -4.04604e-014 6.4605e-015
lhumerus -83.888 -79.6768 178.248
lradius 48.7484
lwrist 16.2313
lhand -23.6048 -31.4035
lfingers 7.12502
lthumb 2.85899 -1.44288
rfemur -2.24011 17.9987 27.1807
rtibia 12.8587
rfoot -15.947 -25.0533
rtoes 1.45698
lfemur 7.14343 -34.1366 -12.4205
ltibia -3.33084
lfoot -10.6787 34.7687
ltoes -11.1333
678
root 0.453538 17.547 9.1481 2.52795 5.91917 -7.52966
lowerback 4.80396 -8.3916 0.590348
upperback -1.8186 -11.033 3.68484
thorax -3.92667 -5.46594 4.3319
lowerneck -11.853 -10.0735 -9.50319
upperneck 36.0655 -15.1294 5.4181
head 15.9989 -7.13256 1.23328
rclavicle 4.98243e-014 -2.72335e-014
rhumerus -63.0526 32.9181 -94.4276
rradius 74.7627
rwrist 38.6048
rhand -30.0148 -30.4751
rfingers 7.12502
rthumb -3.33171 -60.4288
lclavicle 4.98243e-014 -2.72335e-014
lhumerus -84.8379 -79.5692 179.429
lradius 47.0477
lwrist 15.162
lhand -26.0901 -30.5888
lfingers 7.12502
lthumb 0.458706 -0.609594
rfemur -2.61468 18.0864 27.1136
rtibia 13.2331
rfoot -15.9691 -24.7294
rtoes 1.67704
lfemur 7.07079 -33.702 -12.2986
ltibia -3.32762
lfoot -10.6288 34.7505
ltoes -11.2547
679
root 0.452612 17.5504 9.12767 2.58095 5.48186 -7.46956
lowerback 5.01816 -8.35093 0.558857
upperback -1.54876 -10.9841 3.5743
thorax -3.78351 -5.44526 4.23999
lowerneck -12.0445 -9.98709 -9.40322
upperneck 35.6006 -14.9928 5.57219
head 15.8016 -7.04092 1.30322
rclavicle 1.98132e-014 3.73715e-014
rhumerus -61.7883 33.3817 -94.6941
rradius 72.8854
rwrist 40.2373
rhand -30.8612 -30.7276
rfingers 7.12502
rthumb -4.14908 -60.667
lclavicle 1.98132e-014 3.73715e-014
lhumerus -82.4188 -79.504 177.329
lradius 45.5948
lwrist 16.2484
lhand -24.9141 -30.4464
lfingers 7.12502
lthumb 1.59451 -0.472637
rfemur -2.93219 18.2199 26.9953
rtibia 13.5469
rfoot -15.9686 -24.4869
rtoes 1.70282
lfemur 6.97996 -33.1404 -12.2143
ltibia -3.3394
lfoot -10.5417 34.5857
ltoes -11.4131
680
root 0.459914 17.55 9.10067 2.81468 4.94291 -7.44537
lowerback 5.20436 -8.28181 0.717949
upperback -1.38995 -10.8812 3.48422
thorax -3.77495 -5.39799 4.07446
lowerneck -12.1454 -9.86982 -9.21858
upperneck 35.082 -14.7798 5.5897
head 15.5269 -6.92846 1.32346
rclavicle 7.46002e-014 -1.86858e-014
rhumerus -60.6528 33.9722 -95.0102
rradius 71.1401
rwrist 41.5397
rhand -31.5382 -30.9933
rfingers 7.12502
rthumb -4.80287 -60.9189
lclavicle 7.46002e-014 -1.86858e-014
lhumerus -79.0101 -79.243 174.321
lradius 44.2224
lwrist 17.5763
lhand -23.2755 -30.435
lfingers 7.12502
lthumb 3.17704 -0.47888
rfemur -3.5745 18.2158 26.7566
rtibia 13.9597
rfoot -15.8489 -23.9827
rtoes 1.22016
lfemur 6.65899 -32.6501 -12.0346
ltibia -3.30479
lfoot -10.5969 34.5882
ltoes -11.2135
681
root 0.483483 17.5371 9.0622 3.47539 4.17037 -7.57419
lowerback 5.16746 -8.10689 1.37576
upperback -1.41015 -10.6025 3.4234
thorax -3.92166 -5.27026 3.65005
lowerneck -12.384 -9.80717 -9.12484
upperneck 34.691 -14.6594 5.67406
head 15.3778 -6.85004 1.35741
rclavicle -2.5022e-014 1.25234e-014
rhumerus -59.603 34.4985 -95.2672
rradius 69.5545
rwrist 42.2537
rhand -32.0951 -31.0221
rfingers 7.12502
rthumb -5.34054 -60.9348
lclavicle -2.5022e-014 1.25234e-014
lhumerus -77.4287 -78.9712 173.193
lradius 42.8383
lwrist 18.2122
lhand -22.6773 -30.3849
lfingers 7.12502
lthumb 3.75469 -0.438204
rfemur -4.93712 17.9916 26.3773
rtibia 14.5595
rfoot -15.5973 -23.0023
rtoes 0.433138
lfemur 5.8735 -32.5832 -11.637
ltibia -3.15845
lfoot -11.023 35.2519
ltoes -10.1692
682
root 0.489936 17.5405 9.0418 3.61138 3.88357 -7.61357
lowerback 5.47059 -8.06908 1.61309
upperback -1.24462 -10.529 3.36768
thorax -3.97456 -5.23737 3.49763
lowerneck -12.7857 -9.78722 -9.10813
upperneck 34.3677 -14.6143 5.85074
head 15.3268 -6.79318 1.41648
rclavicle -5.3411e-014 1.19271e-015
rhumerus -58.6211 34.9073 -95.4111
rradius 68.1605
rwrist 42.6331
rhand -32.6322 -30.5384
rfingers 7.12502
rthumb -5.85914 -60.4374
lclavicle -5.3411e-014 1.19271e-015
lhumerus -76.1721 -78.8054 172.43
lradius 41.3
lwrist 17.3367
lhand -22.1688 -30.5115
lfingers 7.12502
lthumb 4.24574 -0.574109
rfemur -5.2075 18.0918 26.3171
rtibia 14.6045
rfoot -15.4772 -22.8215
rtoes 0.340738
lfemur 5.74551 -32.607 -11.5658
ltibia -3.13487
lfoot -11.355 35.5002
ltoes -9.46206
683
root 0.494192 17.5444 9.02055 3.75484 3.69568 -7.5301
lowerback 5.83633 -8.07899 1.66404
upperback -1.1201 -10.5282 3.3271
thorax -4.06537 -5.23589 3.47682
lowerneck -13.2133 -9.75658 -9.0871
upperneck 34.0669 -14.5312 5.96363
head 15.2816 -6.72678 1.45463
rclavicle -1.40764e-014 2.06736e-014
rhumerus -57.8111 35.348 -95.5127
rradius 66.9759
rwrist 43.0002
rhand -34.4655 -30.6319
rfingers 7.12502
rthumb -7.62891 -60.4743
lclavicle -1.40764e-014 2.06736e-014
lhumerus -73.8001 -78.5658 170.571
lradius 39.7303
lwrist 15.748
lhand -21.244 -30.7566
lfingers 7.12502
lthumb 5.13872 -0.838896
rfemur -5.46264 18.2272 26.1267
rtibia 14.6201
rfoot -15.3923 -22.759
rtoes 0.278464
lfemur 5.5086 -32.5869 -11.5771
ltibia -3.03368
lfoot -11.6058 35.6232
ltoes -8.95093
684
root 0.499597 17.5469 9.00214 3.95349 3.58051 -7.32454
lowerback 6.12313 -8.11873 1.61604
upperback -1.03032 -10.5771 3.28571
thorax -4.1287 -5.25757 3.50147
lowerneck -13.5215 -9.68893 -9.06403
upperneck 33.6866 -14.3876 6.06485
head 15.1637 -6.64203 1.50678
rclavicle -1.28788e-013 6.44062e-014
rhumerus -57.169 35.8825 -95.6534
rradius 65.9554
rwrist 43.5366
rhand -33.8139 -30.6038
rfingers 7.12502
rthumb -6.99992 -60.468
lclavicle -1.28788e-013 6.44062e-014
lhumerus -71.7063 -78.2945 168.969
lradius 38.2923
lwrist 14.5239
lhand -20.3848 -31.2121
lfingers 7.12502
lthumb 5.96828 -1.31619
rfemur -5.73589 18.2663 25.7606
rtibia 14.5646
rfoot -15.2727 -22.6786
rtoes 0.114084
lfemur 5.26261 -32.7501 -11.7589
ltibia -2.99111
lfoot -11.6303 35.9172
ltoes -8.79184
